<?xml version="1.0" encoding="UTF-8"?>
<svg id="Layer_1" xmlns="http://www.w3.org/2000/svg" baseProfile="tiny" version="1.2" viewBox="0 0 126.2 126.2">
  <!-- Generator: Adobe Illustrator 30.6.0, SVG Export Plug-In . SVG Version: 2.1.4 Build 109)  -->
  <circle cx="63.1" cy="63.1" r="62.14" fill="#fff" stroke="#000" stroke-miterlimit="10" stroke-width="1.92"/>
  <g>
    <path d="M28.41,92.88h.3v2.67h-.3v-2.67Z"/>
    <path d="M29.65,92.88h.3l1.66,2.17v-2.17h.3v2.67h-.3l-1.66-2.17v2.17h-.3v-2.67Z"/>
    <path d="M33.15,93.17v.88h1.45v.29h-1.45v1.22h-.31v-2.67h1.92v.29h-1.61,0Z"/>
    <path d="M35.47,92.88h.3v2.67h-.3v-2.67Z"/>
    <path d="M36.71,92.88h.3l1.66,2.17v-2.17h.3v2.67h-.3l-1.66-2.17v2.17h-.3v-2.67Z"/>
    <path d="M39.9,92.88h.3v2.67h-.3v-2.67Z"/>
    <path d="M41.84,93.17h-.9v-.29h2.1v.29h-.9v2.38h-.3s0-2.38,0-2.38Z"/>
    <path d="M44.09,93.17v.88h1.45v.29h-1.45v.93h1.61v.29h-1.92v-2.67h1.92v.29h-1.61Z"/>
    <path d="M47.93,92.88h.9c.85,0,1.45.55,1.45,1.33s-.6,1.34-1.45,1.34h-.9v-2.67ZM48.83,95.28c.67,0,1.14-.44,1.14-1.06s-.47-1.06-1.14-1.06h-.6v2.12s.6,0,.6,0Z"/>
    <path d="M52.43,94.56l.69.99h-.35l-.68-.96h-.71v.96h-.3v-2.67h1.09c.55,0,.98.35.98.86,0,.42-.3.74-.73.83h0ZM51.4,94.3h.73c.44,0,.73-.21.73-.57s-.3-.57-.73-.57h-.73v1.14Z"/>
    <path d="M53.88,92.88h.3v2.67h-.3v-2.67Z"/>
    <path d="M57.56,92.88l-1.18,2.67h-.33l-1.18-2.67h.33l1.02,2.3,1.01-2.3h.33Z"/>
    <path d="M58.56,93.17v.88h1.45v.29h-1.45v.93h1.61v.29h-1.92v-2.67h1.92v.29h-1.61Z"/>
    <path d="M65.44,95.26v.29h-1.76v-2.67h.3v2.38h1.46Z"/>
    <path d="M66.14,92.88h.3v2.67h-.3v-2.67Z"/>
    <path d="M67.37,92.88h.3l.99,1.86.99-1.86h.3v2.67h-.3v-2.02l-.99,1.86-.99-1.86v2.02h-.3v-2.67Z"/>
    <path d="M70.89,92.88h.3v2.67h-.3v-2.67Z"/>
    <path d="M72.84,93.17h-.9v-.29h2.1v.29h-.9v2.38h-.3s0-2.38,0-2.38Z"/>
    <path d="M75.09,93.17v.88h1.45v.29h-1.45v.93h1.61v.29h-1.92v-2.67h1.92v.29h-1.61Z"/>
    <path d="M77.54,92.88h.9c.85,0,1.45.55,1.45,1.33s-.6,1.34-1.45,1.34h-.9v-2.67ZM78.44,95.28c.67,0,1.14-.44,1.14-1.06s-.47-1.06-1.14-1.06h-.6v2.12s.6,0,.6,0Z"/>
    <path d="M84.27,92.88v2.67h-.3v-1.22h-1.58v1.22h-.3v-2.67h.3v1.17h1.58v-1.17h.3Z"/>
    <path d="M85.03,94.21c0-.75.63-1.38,1.37-1.38s1.37.63,1.37,1.38-.62,1.39-1.37,1.39-1.37-.63-1.37-1.39ZM87.46,94.21c0-.59-.48-1.1-1.06-1.1s-1.06.51-1.06,1.1.49,1.11,1.06,1.11,1.06-.51,1.06-1.11Z"/>
    <path d="M88.56,94.44v-1.56h.3v1.56c0,.51.34.88.81.88s.81-.37.81-.88v-1.56h.3v1.56c0,.68-.46,1.16-1.12,1.16s-1.12-.48-1.12-1.16h.02Z"/>
    <path d="M93.04,94.56l.69.99h-.35l-.68-.96h-.71v.96h-.3v-2.67h1.08c.55,0,.98.35.98.86,0,.42-.3.74-.73.83h.02ZM92,94.3h.73c.44,0,.73-.21.73-.57s-.3-.57-.73-.57h-.73v1.14Z"/>
    <path d="M94.35,95.17l.19-.24c.23.23.5.39.88.39.41,0,.62-.23.62-.47,0-.28-.25-.4-.72-.51-.54-.12-.88-.29-.88-.75,0-.43.38-.76.89-.76.4,0,.69.16.94.38l-.19.24c-.22-.21-.49-.34-.77-.34-.33,0-.57.22-.57.46,0,.28.26.37.72.48.51.12.88.3.88.77,0,.42-.32.77-.94.77-.44,0-.79-.16-1.05-.42Z"/>
  </g>
  <g>
    <polygon points="86 88.71 92.49 82.3 50.78 33.2 44.31 39.86 86 88.71"/>
    <rect x="28.23" y="32.99" width="9.37" height="55.85"/>
    <path d="M95.79,33.19h-1.31l-6.03.45c-13.44,1.9-26.2,8.75-34.89,19-.67.79-1.13,1.78-1.97,2.4l-.23-.5v-6.13c.05-.3.09-.73.11-1.33.21-6.5,5.83-6.25,5.83-6.25l-5.97-7h0l-.54-.64h-10.49v55.64h1.02l9.55-.14c.09,0,.45-.31.46-.34.27-.85-.05-2.88.06-3.95.94-8.78,4.9-18.21,10.77-24.88,6.75-7.67,14.45-11.98,23.65-14.02v29.11c-1.61,8.75-9.96,2.2-9.96,2.2l9.96,11.94h9.98v-44.92h0v-10.63h0Z" fill="#009eed"/>
  </g>
  <circle cx="62.21" cy="94.28" r=".38"/>
</svg>